<svg width="118" height="106" viewBox="0 0 118 106" fill="none" xmlns="http://www.w3.org/2000/svg" xmlns:xlink="http://www.w3.org/1999/xlink">
<path d="M59,103.503C30.619,103.503 0,87.376 0,51.989C0,16.602 30.619,0.475 59,0.475C74.767,0.475 89.314,5.175 100.097,13.745C111.795,23.145 118,36.415 118,51.989C118,67.563 111.795,80.741 100.097,90.14C89.314,98.711 74.666,103.503 59,103.503Z" fill="url(#pf_0_5_52)"/>
<path d="M59,103.503C30.619,103.503 0,87.376 0,51.989C0,16.602 30.619,0.475 59,0.475C74.767,0.475 89.314,5.175 100.097,13.745C111.795,23.145 118,36.415 118,51.989C118,67.563 111.795,80.741 100.097,90.14C89.314,98.711 74.666,103.503 59,103.503Z" fill="url(#pf_0_5_53)"/>
<path d="M107.716,21.366C113.138,29.291 115.965,38.728 115.965,49.224C115.965,64.798 109.76,77.976 98.062,87.376C87.279,95.946 72.631,100.738 56.965,100.738C38.594,100.738 19.328,93.965 7.955,79.598C18.9,95.872 39.489,103.503 59,103.503C74.665,103.503 89.314,98.711 100.097,90.14C111.795,80.741 118,67.563 118,51.989C118,40.248 114.47,29.817 107.716,21.366Z" fill="#EB8F00"/>
<g opacity="0.66">
<path d="M0.895,63.241C1.912,60.836 6.409,60.799 9.735,62.255C16.174,65.084 15.411,71.277 18.636,72.511C21.861,73.746 32.043,66.18 46.356,64.983C47.963,64.844 57.454,63.766 58.39,67.378C58.756,68.807 56.07,69.083 56.07,69.083C50.252,71.037 44.331,73.028 39.123,76.115C33.213,79.607 28.045,84.547 21.179,86.003C18.504,86.565 15.482,86.482 13.305,84.98C10.6,83.137 9.999,79.755 9.013,76.815C7.884,73.451 6.022,70.318 3.56,67.6Z" fill="url(#pf_0_5_55)"/>
</g>
<path d="M0.773,63.232C-1.078,65.268 2.858,70.678 3.56,73.433C5.249,80.086 3.56,81.727 3.428,87.643C3.316,94.149 5.463,99.623 10.935,103.116C16.083,106.424 21.749,106.802 29.683,104.682C37.618,102.563 42.979,101.54 43.385,98.001C43.609,96.536 42.755,95.098 41.27,94.472C42.063,94.131 42.694,93.55 43.05,92.822C44.942,88.731 41.168,87.864 41.168,87.864C41.687,87.302 42.124,86.685 42.47,86.021C43.599,83.985 43.416,81.22 40.161,80.317C38.665,79.902 38.259,80.123 38.259,80.123C39.805,78.686 41.656,77.534 43.701,76.76C49.174,74.631 55.664,73.341 57.281,72.097C59.631,70.254 59.773,66.706 55.623,65.646C49.662,64.061 38.696,67.747 32.023,71.59C25.35,75.433 19.226,77.506 17.191,76.806C15.157,76.105 13.896,74.963 13.122,72.198C11.688,67.056 10.579,65.065 8.148,63.139C6.134,61.573 2.197,61.665 0.773,63.232Z" fill="url(#pf_0_5_56)"/>
<path d="M33.854,83.21C33.854,83.21 32.358,82.289 38.33,77.967C42.399,75.009 44.748,74.474 49.621,73.359C59.468,71.175 58.847,68.365 58.847,68.365C59.376,72.502 54.86,73.424 51.554,74.364C51.208,74.456 50.882,74.576 50.537,74.649C39.215,77.267 35.258,84.031 33.854,83.21Z" fill="url(#pf_0_5_57)"/>
<path d="M43.131,93.467C44.016,92.14 44.26,90.527 43.792,89.035C43.467,88.159 42.846,87.394 42.002,86.869C42.124,86.722 42.246,86.583 42.358,86.417C43.263,85.136 43.396,83.524 42.714,82.132C41.941,81.036 40.679,80.308 39.265,80.142C40.232,80.566 40.954,81.349 41.239,82.289C41.402,83.422 41.219,84.584 40.73,85.634C40.079,87.072 38.625,88.076 36.926,88.279C34.464,88.721 35.217,89.643 35.217,89.643C35.43,90.38 38.34,89.698 40.547,88.205C41.168,88.5 41.636,89.007 41.859,89.606C42.093,90.537 41.951,91.523 41.463,92.371C40.781,93.725 39.459,94.739 37.872,95.135C35.685,95.679 36.285,96.407 36.285,96.407C36.285,96.407 36.387,97.973 40.883,95.393C41.412,96.315 42.114,98.37 40.71,99.697C35.949,104.24 21.922,105.991 21.922,105.991C29.042,105.991 38.828,103.503 41.859,101.227C43.04,100.388 43.731,99.116 43.741,97.762C43.874,96.499 43.355,95.246 42.348,94.361C42.633,94.085 42.897,93.79 43.131,93.467Z" fill="url(#pf_0_5_58)"/>
<path d="M72.499,59.739C72.173,59.684 71.868,59.564 71.614,59.37C67.026,56.034 61.553,53.86 55.745,53.049C49.936,52.136 43.975,52.634 38.452,54.486C38.147,54.597 37.821,54.634 37.496,54.588C36.783,54.477 36.204,53.998 36.01,53.362C35.817,52.735 36.051,52.072 36.6,51.657C47.383,43.548 63.374,44.893 72.326,54.661C73.058,55.463 73.73,56.311 74.34,57.186C74.727,57.73 74.727,58.43 74.34,58.974C73.943,59.536 73.221,59.831 72.499,59.739Z" fill="#422B0D"/>
<path d="M76.466,22.693C80.728,22.693 84.604,25.956 84.604,31.374C84.604,36.793 80.728,40.046 76.466,40.046C72.204,40.046 68.328,36.784 68.328,31.374C68.328,25.965 72.204,22.693 76.466,22.693Z" fill="#422B0D"/>
<path d="M41.239,14.298C36.977,14.298 33.101,17.56 33.101,22.97C33.101,28.379 36.977,31.651 41.239,31.651C45.511,31.651 49.377,28.388 49.377,22.97C49.377,17.551 45.511,14.298 41.239,14.298Z" fill="#422B0D"/>
<path d="M34.718,3.82C34.261,3.138 34.2,2.29 34.556,1.562C34.942,0.834 35.705,0.337 36.59,0.235C42.134,-0.548 47.79,0.641 52.388,3.544C54.107,4.613 55.633,5.903 56.925,7.387C57.006,7.479 57.077,7.58 57.149,7.691C57.84,8.667 57.606,9.958 56.61,10.686C55.541,11.487 53.975,11.46 52.947,10.612L53.375,9.985L52.856,10.538C48.4,7.165 42.826,5.239 37.028,5.083C36.061,5.083 35.166,4.622 34.678,3.866L34.718,3.82Z" fill="#422B0D"/>
<path d="M88.907,20.306C89.66,19.929 90.168,19.237 90.27,18.463C90.331,17.662 89.955,16.888 89.253,16.399C84.848,13.22 79.253,11.699 73.648,12.179C71.573,12.335 69.539,12.778 67.606,13.487L67.24,13.644C66.111,14.187 65.612,15.413 66.08,16.491C66.579,17.662 67.931,18.325 69.284,18.058L69.284,17.321L69.427,18.039C75.123,17.081 81.013,17.883 86.15,20.316C86.995,20.749 88.022,20.749 88.866,20.316L88.907,20.306Z" fill="#422B0D"/>
<defs>
<radialGradient id="pf_0_5_52" cx="0" cy="0" r="1" gradientUnits="userSpaceOnUse" gradientTransform="matrix(28.970881 0 0 26.245194 29.5 25.994)">
<stop offset="0.5" stop-color="#FDE030"/>
<stop offset="0.92" stop-color="#F7C02B"/>
<stop offset="1" stop-color="#F4A223"/>
</radialGradient>
<linearGradient id="pf_0_5_53" x1="59" y1="103.503" x2="59" y2="0.475" gradientUnits="userSpaceOnUse">
<stop stop-color="#F4A223"/>
<stop offset="0.08" stop-color="#F7C02B"/>
<stop offset="0.54" stop-color="#FDE030" stop-opacity="0"/>
</linearGradient>
<linearGradient id="pf_0_5_55" x1="29.88" y1="92.085" x2="29.625" y2="61.324" gradientUnits="userSpaceOnUse">
<stop stop-color="#BF360C"/>
<stop offset="1" stop-color="#BF360C" stop-opacity="0.2"/>
</linearGradient>
<radialGradient id="pf_0_5_56" cx="0" cy="0" r="1" gradientUnits="userSpaceOnUse" gradientTransform="matrix(30.115434 0 0 25.645134 18.234 35.399)">
<stop offset="0.27" stop-color="#FFF176"/>
<stop offset="1" stop-color="#FFC400"/>
</radialGradient>
<linearGradient id="pf_0_5_57" x1="34.262" y1="81.232" x2="59.886" y2="69.703" gradientUnits="userSpaceOnUse">
<stop offset="0.13" stop-color="#DA6727"/>
<stop offset="1" stop-color="#FFC400"/>
</linearGradient>
<linearGradient id="pf_0_5_58" x1="32.937" y1="104.12" x2="33.151" y2="69.129" gradientUnits="userSpaceOnUse">
<stop offset="0.13" stop-color="#DA6727"/>
<stop offset="1" stop-color="#FFC400"/>
</linearGradient>
</defs>
</svg>
