<svg width="76" height="74" viewBox="0 0 76 74" fill="none" xmlns="http://www.w3.org/2000/svg" xmlns:xlink="http://www.w3.org/1999/xlink">
<path d="M75.08,36.532C75.08,16.52 58.018,0.213 37.08,0.213C16.142,0.213 -0.92,16.52 -0.92,36.532C-0.92,47.065 3.83,56.544 11.354,63.19C11.354,63.227 11.354,63.227 11.316,63.263C11.696,63.626 12.152,63.917 12.532,64.243C12.76,64.425 12.95,64.607 13.178,64.752C13.862,65.297 14.622,65.805 15.344,66.314C15.61,66.495 15.838,66.64 16.104,66.822C16.826,67.294 17.586,67.73 18.384,68.13C18.65,68.275 18.954,68.456 19.22,68.602C19.98,69.001 20.778,69.364 21.614,69.691C21.918,69.837 22.222,69.982 22.526,70.091C23.362,70.418 24.198,70.708 25.034,70.962C25.338,71.071 25.642,71.18 25.946,71.253C26.858,71.507 27.77,71.725 28.682,71.943C28.948,72.016 29.214,72.088 29.518,72.125C30.582,72.343 31.646,72.488 32.748,72.597C32.9,72.597 33.052,72.633 33.204,72.669C34.496,72.778 35.788,72.851 37.08,72.851C38.372,72.851 39.664,72.778 40.918,72.669C41.07,72.669 41.222,72.633 41.374,72.597C42.476,72.488 43.54,72.343 44.604,72.125C44.87,72.088 45.136,71.979 45.44,71.943C46.352,71.725 47.302,71.544 48.176,71.253C48.48,71.144 48.784,71.035 49.088,70.962C49.924,70.672 50.798,70.418 51.596,70.091C51.9,69.982 52.204,69.837 52.508,69.691C53.306,69.364 54.104,69.001 54.902,68.602C55.206,68.456 55.472,68.275 55.738,68.13C56.498,67.694 57.258,67.294 58.018,66.822C58.284,66.677 58.512,66.495 58.778,66.314C59.538,65.805 60.26,65.297 60.944,64.752C61.172,64.57 61.362,64.389 61.59,64.243C62.008,63.917 62.426,63.59 62.806,63.263C62.806,63.227 62.806,63.227 62.768,63.19C70.33,56.544 75.08,47.065 75.08,36.532ZM55.852,54.583C45.554,47.973 28.682,47.973 18.308,54.583C16.636,55.636 15.268,56.871 14.128,58.215C8.352,52.621 4.78,44.958 4.78,36.532C4.78,19.499 19.258,5.661 37.08,5.661C54.902,5.661 69.38,19.499 69.38,36.532C69.38,44.958 65.808,52.621 60.032,58.215C58.93,56.871 57.524,55.636 55.852,54.583Z" fill="#1476F0"/>
<path d="M37.08,18.117C29.214,18.117 22.83,24.219 22.83,31.737C22.83,39.11 28.872,45.102 36.89,45.32L37.232,45.32L37.498,45.32L37.574,45.32C45.25,45.066 51.292,39.11 51.33,31.737C51.33,24.219 44.946,18.117 37.08,18.117Z" fill="#1476F0"/>
</svg>
