<svg width="66" height="60" viewBox="0 0 66 60" fill="none" xmlns="http://www.w3.org/2000/svg" xmlns:xlink="http://www.w3.org/1999/xlink">
<path d="M32,44.774C40.937,44.774 49.107,38.194 49.107,29L39.782,29C39.782,32.078 36.808,35.448 32,35.448L32,44.774ZM49.107,29C49.107,19.805 40.937,13.226 32,13.226L32,22.552C36.808,22.552 39.782,25.922 39.782,29L49.107,29ZM32,13.226C23.063,13.226 14.893,19.805 14.893,29L24.218,29C24.218,25.922 27.191,22.552 32,22.552L32,13.226ZM14.893,29C14.893,38.194 23.063,44.774 32,44.774L32,35.448C27.191,35.448 24.218,32.078 24.218,29L14.893,29Z" fill="#3FD45F"/>
<path d="M8.663,40.111L8.663,17.889L-0.663,17.889L-0.663,40.111L8.663,40.111ZM8.663,17.889C8.663,13.276 13.029,8.663 19.556,8.663L19.556,-0.663C8.9,-0.663 -0.663,7.16 -0.663,17.889L8.663,17.889ZM19.556,8.663L44.444,8.663L44.444,-0.663L19.556,-0.663L19.556,8.663ZM44.444,8.663C50.971,8.663 55.337,13.276 55.337,17.889L64.663,17.889C64.663,7.16 55.1,-0.663 44.444,-0.663L44.444,8.663ZM55.337,17.889L55.337,40.111L64.663,40.111L64.663,17.889L55.337,17.889ZM55.337,40.111C55.337,44.724 50.971,49.337 44.444,49.337L44.444,58.663C55.1,58.663 64.663,50.84 64.663,40.111L55.337,40.111ZM44.444,49.337L19.556,49.337L19.556,58.663L44.444,58.663L44.444,49.337ZM19.556,49.337C13.029,49.337 8.663,44.724 8.663,40.111L-0.663,40.111C-0.663,50.84 8.9,58.663 19.556,58.663L19.556,49.337Z" fill="#3FD45F"/>
<path d="M45.827,10.44C43.999,12.253 43.987,15.206 45.801,17.034C47.614,18.862 50.567,18.874 52.395,17.06L45.827,10.44ZM52.426,17.03C54.254,15.216 54.266,12.264 52.453,10.435C50.639,8.607 47.687,8.595 45.858,10.409L52.426,17.03ZM52.395,17.06L52.426,17.03L45.858,10.409L45.827,10.44L52.395,17.06Z" fill="#3FD45F"/>
</svg>
