<svg width="46" height="52" viewBox="0 0 46 52" fill="none" xmlns="http://www.w3.org/2000/svg" xmlns:xlink="http://www.w3.org/1999/xlink">
<path d="M44.688,35.374L34.625,30.681C34.196,30.482 33.718,30.44 33.264,30.561C32.81,30.683 32.405,30.962 32.11,31.356L27.653,37.281C20.66,33.692 15.031,27.567 11.734,19.956L17.178,15.106C17.541,14.785 17.798,14.344 17.91,13.85C18.022,13.356 17.982,12.836 17.798,12.369L13.486,1.418C13.284,0.914 12.926,0.502 12.475,0.254C12.024,0.006 11.508,-0.063 11.015,0.059L1.671,2.405C1.196,2.525 0.772,2.816 0.469,3.231C0.165,3.647 0,4.162 0,4.692C0,29.772 18.679,50.06 41.688,50.06C42.176,50.06 42.649,49.881 43.031,49.55C43.413,49.22 43.681,48.758 43.791,48.241L45.947,38.073C46.058,37.534 45.993,36.969 45.764,36.477C45.534,35.984 45.154,35.594 44.688,35.374Z" fill="#3FD45F"/>
</svg>
