<svg width="80" height="76" viewBox="0 0 80 76" fill="none" xmlns="http://www.w3.org/2000/svg" xmlns:xlink="http://www.w3.org/1999/xlink">
<path d="M3.407,0.019C2.372,0.35 1.479,0.993 0.865,1.85C0.251,2.708 -0.05,3.733 0.007,4.768L0.007,52.256C0.007,53.515 0.534,54.723 1.471,55.614C2.409,56.504 3.68,57.005 5.006,57.005L30.004,57.005L30.004,66.502L20.005,66.502C14.506,66.502 10.006,70.776 10.006,76L70.001,76C70.001,70.776 65.501,66.502 60.002,66.502L50.003,66.502L50.003,57.005L75,57.005C76.326,57.005 77.598,56.504 78.536,55.614C79.473,54.723 80,53.515 80,52.256L80,4.768C80,3.509 79.473,2.301 78.536,1.41C77.598,0.52 76.326,0.019 75,0.019L5.006,0.019C4.707,-0.006 4.406,-0.006 4.106,0.019C3.907,0.008 3.706,0.008 3.506,0.019L3.407,0.019ZM10.006,9.517L70.001,9.517L70.001,47.507L10.006,47.507L10.006,9.517Z" fill="#000000"/>
</svg>
