<svg width="58" height="56" viewBox="0 0 58 56" fill="none" xmlns="http://www.w3.org/2000/svg" xmlns:xlink="http://www.w3.org/1999/xlink">
<path d="M52.562,0L5.438,0C2.434,0 0,3.056 0,6.826L0,47.784C0,51.555 2.434,54.611 5.438,54.611L52.562,54.611C55.566,54.611 58,51.555 58,47.784L58,6.826C58,3.056 55.566,0 52.562,0ZM52.562,6.826L52.562,12.629C50.023,15.226 45.973,19.264 37.316,27.774C35.409,29.658 31.629,34.184 29,34.131C26.371,34.184 22.591,29.657 20.684,27.774C12.028,19.265 7.978,15.227 5.438,12.629L5.438,6.826L52.562,6.826ZM5.438,47.784L5.438,21.389C8.033,23.985 11.714,27.627 17.325,33.142C19.801,35.589 24.137,40.991 29,40.958C33.839,40.991 38.12,35.668 40.674,33.144C46.285,27.628 49.967,23.985 52.562,21.389L52.562,47.784L5.438,47.784Z" fill="#3FD45F"/>
</svg>
