<svg width="68" height="64" viewBox="0 0 68 64" fill="none" xmlns="http://www.w3.org/2000/svg" xmlns:xlink="http://www.w3.org/1999/xlink">
<path d="M34,0C15.215,0 0,14.32 0,32C0,49.68 15.215,64 34,64C52.785,64 68,49.68 68,32C68,14.32 52.785,0 34,0ZM34,8C36.805,8 39.44,8.72 41.99,9.52C40.205,11.12 38.165,12.56 38.505,14C38.845,15.44 44.37,15.04 44.37,18C44.37,20.16 40.8,20.8 43.265,23.28C46.24,26.08 37.825,31.12 37.655,34.8C37.4,41.44 44.795,42.56 50.66,42.56C54.23,42.56 55.165,44.16 54.91,46.08C50.32,52.24 42.5,56.08 33.915,56.08C30.685,56.08 27.71,55.36 24.905,54.32C26.775,50.8 22.525,43.84 18.53,41.6C16.575,39.76 12.41,40.48 10.03,39.6C9.265,37.44 8.5,35.28 8.415,32.88C8.67,32.48 9.095,32.16 9.775,32.16C11.39,32.16 13.6,35.2 14.79,34.88C16.32,34.56 8.5,24.4 12.155,22.4C13.855,21.44 17.255,25.52 16.15,21.12C15.13,17.04 19.21,18.88 21.76,17.84C23.97,16.96 25.585,14.56 22.865,13.12C22.355,12.88 21.76,12.32 20.995,11.6C24.82,9.44 29.24,8.08 34,8.08L34,8ZM53.635,16.72C55.165,18.48 56.355,20.4 57.375,22.48L57.375,22.72C57.035,23.28 56.44,23.6 55.505,24.48C53.125,26.72 52.785,22.8 51.765,22C50.66,21.04 46.665,22.16 46.155,20.96C45.56,19.52 50.405,17.6 53.635,16.72Z" fill="#E08F15"/>
</svg>
